<mxfile host="app.diagrams.net" agent="Mozilla/5.0 (Windows NT 10.0; Win64; x64) AppleWebKit/537.36 (KHTML, like Gecko) Chrome/136.0.0.0 Safari/537.36" version="27.1.1">
  <diagram name="Page-1" id="uxglpDVqbuL0TInWPJXQ">
    <mxGraphModel dx="1181" dy="858" grid="1" gridSize="10" guides="1" tooltips="1" connect="1" arrows="1" fold="1" page="1" pageScale="1" pageWidth="827" pageHeight="1169" math="0" shadow="0">
      <root>
        <mxCell id="0" />
        <mxCell id="1" parent="0" />
        <mxCell id="6V2twQQ6KXOtNTaw_Wph-7" value="" style="edgeStyle=orthogonalEdgeStyle;rounded=0;orthogonalLoop=1;jettySize=auto;html=1;entryX=0.5;entryY=0;entryDx=0;entryDy=0;" parent="1" source="6V2twQQ6KXOtNTaw_Wph-1" target="6V2twQQ6KXOtNTaw_Wph-18" edge="1">
          <mxGeometry relative="1" as="geometry">
            <mxPoint x="300" y="319.9999999999999" as="targetPoint" />
            <Array as="points">
              <mxPoint x="300" y="110" />
            </Array>
          </mxGeometry>
        </mxCell>
        <mxCell id="6V2twQQ6KXOtNTaw_Wph-11" value="&lt;div&gt;Thread&lt;/div&gt;Flask" style="edgeLabel;html=1;align=center;verticalAlign=middle;resizable=0;points=[];" parent="6V2twQQ6KXOtNTaw_Wph-7" vertex="1" connectable="0">
          <mxGeometry x="-0.2941" y="-1" relative="1" as="geometry">
            <mxPoint x="-7" y="1" as="offset" />
          </mxGeometry>
        </mxCell>
        <mxCell id="6V2twQQ6KXOtNTaw_Wph-9" value="" style="edgeStyle=orthogonalEdgeStyle;rounded=0;orthogonalLoop=1;jettySize=auto;html=1;entryX=0;entryY=0.5;entryDx=0;entryDy=0;" parent="1" edge="1">
          <mxGeometry relative="1" as="geometry">
            <mxPoint x="480" y="110" as="sourcePoint" />
            <mxPoint x="610" y="110" as="targetPoint" />
            <Array as="points">
              <mxPoint x="580" y="110" />
              <mxPoint x="580" y="110" />
            </Array>
          </mxGeometry>
        </mxCell>
        <mxCell id="6V2twQQ6KXOtNTaw_Wph-10" value="&lt;div&gt;Thread&lt;/div&gt;Emit Loop" style="edgeLabel;html=1;align=center;verticalAlign=middle;resizable=0;points=[];" parent="6V2twQQ6KXOtNTaw_Wph-9" vertex="1" connectable="0">
          <mxGeometry x="-0.2676" y="-3" relative="1" as="geometry">
            <mxPoint x="5" y="-3" as="offset" />
          </mxGeometry>
        </mxCell>
        <mxCell id="6V2twQQ6KXOtNTaw_Wph-1" value="&lt;div&gt;app.py&lt;/div&gt;&lt;div&gt;startes&lt;/div&gt;" style="rounded=1;whiteSpace=wrap;html=1;strokeWidth=2;" parent="1" vertex="1">
          <mxGeometry x="360" y="80" width="120" height="60" as="geometry" />
        </mxCell>
        <mxCell id="6V2twQQ6KXOtNTaw_Wph-4" value="" style="endArrow=none;dashed=1;html=1;dashPattern=1 3;strokeWidth=2;rounded=0;" parent="1" edge="1">
          <mxGeometry width="50" height="50" relative="1" as="geometry">
            <mxPoint x="800" y="40" as="sourcePoint" />
            <mxPoint x="420" y="40" as="targetPoint" />
            <Array as="points">
              <mxPoint x="800" y="400" />
              <mxPoint x="420" y="400" />
            </Array>
          </mxGeometry>
        </mxCell>
        <mxCell id="6V2twQQ6KXOtNTaw_Wph-5" value="Parralel" style="edgeLabel;html=1;align=center;verticalAlign=middle;resizable=0;points=[];" parent="6V2twQQ6KXOtNTaw_Wph-4" vertex="1" connectable="0">
          <mxGeometry x="0.6509" y="3" relative="1" as="geometry">
            <mxPoint x="3" y="-30" as="offset" />
          </mxGeometry>
        </mxCell>
        <mxCell id="6V2twQQ6KXOtNTaw_Wph-15" value="" style="edgeStyle=orthogonalEdgeStyle;rounded=0;orthogonalLoop=1;jettySize=auto;html=1;entryX=0;entryY=0.5;entryDx=0;entryDy=0;" parent="1" source="6V2twQQ6KXOtNTaw_Wph-12" target="6V2twQQ6KXOtNTaw_Wph-76" edge="1">
          <mxGeometry relative="1" as="geometry">
            <mxPoint x="630" y="210.04347826086962" as="targetPoint" />
          </mxGeometry>
        </mxCell>
        <mxCell id="6V2twQQ6KXOtNTaw_Wph-12" value="&lt;div&gt;Emit Base64&amp;nbsp;&lt;/div&gt;&lt;div&gt;streng via&lt;/div&gt;&lt;div&gt;SocketIO&lt;/div&gt;" style="shape=parallelogram;perimeter=parallelogramPerimeter;whiteSpace=wrap;html=1;fixedSize=1;" parent="1" vertex="1">
          <mxGeometry x="467.5" y="300" width="120" height="60" as="geometry" />
        </mxCell>
        <mxCell id="6V2twQQ6KXOtNTaw_Wph-21" value="" style="edgeStyle=orthogonalEdgeStyle;rounded=0;orthogonalLoop=1;jettySize=auto;html=1;" parent="1" source="6V2twQQ6KXOtNTaw_Wph-18" target="6V2twQQ6KXOtNTaw_Wph-20" edge="1">
          <mxGeometry relative="1" as="geometry" />
        </mxCell>
        <mxCell id="6V2twQQ6KXOtNTaw_Wph-18" value="&lt;div&gt;Flask-website&lt;/div&gt;&lt;div&gt;Lytter efter requests&lt;/div&gt;" style="shape=parallelogram;perimeter=parallelogramPerimeter;whiteSpace=wrap;html=1;fixedSize=1;" parent="1" vertex="1">
          <mxGeometry x="220" y="200" width="160" height="60" as="geometry" />
        </mxCell>
        <mxCell id="6V2twQQ6KXOtNTaw_Wph-25" value="" style="edgeStyle=orthogonalEdgeStyle;rounded=0;orthogonalLoop=1;jettySize=auto;html=1;" parent="1" source="6V2twQQ6KXOtNTaw_Wph-20" target="6V2twQQ6KXOtNTaw_Wph-24" edge="1">
          <mxGeometry relative="1" as="geometry">
            <Array as="points">
              <mxPoint x="100" y="330" />
            </Array>
          </mxGeometry>
        </mxCell>
        <mxCell id="6V2twQQ6KXOtNTaw_Wph-26" value="/send" style="edgeLabel;html=1;align=center;verticalAlign=middle;resizable=0;points=[];fontSize=15;" parent="6V2twQQ6KXOtNTaw_Wph-25" vertex="1" connectable="0">
          <mxGeometry x="-0.0353" y="1" relative="1" as="geometry">
            <mxPoint x="-58" y="-1" as="offset" />
          </mxGeometry>
        </mxCell>
        <mxCell id="6V2twQQ6KXOtNTaw_Wph-89" value="" style="edgeStyle=orthogonalEdgeStyle;rounded=0;orthogonalLoop=1;jettySize=auto;html=1;entryX=0.5;entryY=0;entryDx=0;entryDy=0;" parent="1" edge="1">
          <mxGeometry relative="1" as="geometry">
            <mxPoint x="300.0026315789473" y="360" as="sourcePoint" />
            <mxPoint x="609.95" y="480" as="targetPoint" />
            <Array as="points">
              <mxPoint x="299.95" y="420" />
              <mxPoint x="609.95" y="420" />
            </Array>
          </mxGeometry>
        </mxCell>
        <mxCell id="6V2twQQ6KXOtNTaw_Wph-94" value="&lt;font style=&quot;font-size: 15px;&quot;&gt;/om&lt;/font&gt;" style="edgeLabel;html=1;align=center;verticalAlign=middle;resizable=0;points=[];" parent="6V2twQQ6KXOtNTaw_Wph-89" vertex="1" connectable="0">
          <mxGeometry x="0.825" y="-2" relative="1" as="geometry">
            <mxPoint x="2" y="7" as="offset" />
          </mxGeometry>
        </mxCell>
        <mxCell id="6V2twQQ6KXOtNTaw_Wph-91" value="" style="edgeStyle=orthogonalEdgeStyle;rounded=0;orthogonalLoop=1;jettySize=auto;html=1;entryX=0.5;entryY=0;entryDx=0;entryDy=0;" parent="1" source="6V2twQQ6KXOtNTaw_Wph-20" target="6V2twQQ6KXOtNTaw_Wph-88" edge="1">
          <mxGeometry relative="1" as="geometry">
            <mxPoint x="470" y="490" as="targetPoint" />
            <Array as="points">
              <mxPoint x="300" y="420" />
              <mxPoint x="1152" y="420" />
            </Array>
          </mxGeometry>
        </mxCell>
        <mxCell id="6V2twQQ6KXOtNTaw_Wph-92" value="&lt;font style=&quot;font-size: 15px;&quot;&gt;/dashboard&lt;/font&gt;" style="edgeLabel;html=1;align=center;verticalAlign=middle;resizable=0;points=[];" parent="6V2twQQ6KXOtNTaw_Wph-91" vertex="1" connectable="0">
          <mxGeometry x="0.7494" y="-2" relative="1" as="geometry">
            <mxPoint x="61" y="28" as="offset" />
          </mxGeometry>
        </mxCell>
        <mxCell id="6V2twQQ6KXOtNTaw_Wph-93" value="" style="edgeStyle=orthogonalEdgeStyle;rounded=0;orthogonalLoop=1;jettySize=auto;html=1;entryX=0.5;entryY=0;entryDx=0;entryDy=0;" parent="1" source="6V2twQQ6KXOtNTaw_Wph-20" target="6V2twQQ6KXOtNTaw_Wph-86" edge="1">
          <mxGeometry relative="1" as="geometry">
            <Array as="points">
              <mxPoint x="300" y="420" />
              <mxPoint x="750" y="420" />
            </Array>
          </mxGeometry>
        </mxCell>
        <mxCell id="6V2twQQ6KXOtNTaw_Wph-99" value="&lt;font style=&quot;font-size: 15px;&quot;&gt;/&lt;/font&gt;" style="edgeLabel;html=1;align=center;verticalAlign=middle;resizable=0;points=[];" parent="6V2twQQ6KXOtNTaw_Wph-93" vertex="1" connectable="0">
          <mxGeometry x="0.8754" y="-1" relative="1" as="geometry">
            <mxPoint x="1" y="6" as="offset" />
          </mxGeometry>
        </mxCell>
        <mxCell id="6V2twQQ6KXOtNTaw_Wph-97" value="" style="edgeStyle=orthogonalEdgeStyle;rounded=0;orthogonalLoop=1;jettySize=auto;html=1;entryX=0.5;entryY=0;entryDx=0;entryDy=0;" parent="1" source="6V2twQQ6KXOtNTaw_Wph-20" target="6V2twQQ6KXOtNTaw_Wph-95" edge="1">
          <mxGeometry relative="1" as="geometry">
            <Array as="points">
              <mxPoint x="300" y="420" />
              <mxPoint x="887" y="420" />
            </Array>
          </mxGeometry>
        </mxCell>
        <mxCell id="6V2twQQ6KXOtNTaw_Wph-100" value="&lt;font style=&quot;font-size: 15px;&quot;&gt;/indstillinger&lt;/font&gt;" style="edgeLabel;html=1;align=center;verticalAlign=middle;resizable=0;points=[];" parent="6V2twQQ6KXOtNTaw_Wph-97" vertex="1" connectable="0">
          <mxGeometry x="0.9229" y="-3" relative="1" as="geometry">
            <mxPoint x="3" y="-3" as="offset" />
          </mxGeometry>
        </mxCell>
        <mxCell id="6V2twQQ6KXOtNTaw_Wph-98" value="" style="edgeStyle=orthogonalEdgeStyle;rounded=0;orthogonalLoop=1;jettySize=auto;html=1;entryX=0.5;entryY=0;entryDx=0;entryDy=0;" parent="1" source="6V2twQQ6KXOtNTaw_Wph-20" target="6V2twQQ6KXOtNTaw_Wph-96" edge="1">
          <mxGeometry relative="1" as="geometry">
            <Array as="points">
              <mxPoint x="300" y="420" />
              <mxPoint x="1020" y="420" />
            </Array>
          </mxGeometry>
        </mxCell>
        <mxCell id="6V2twQQ6KXOtNTaw_Wph-101" value="&lt;font style=&quot;font-size: 15px;&quot;&gt;/kontakt&lt;/font&gt;" style="edgeLabel;html=1;align=center;verticalAlign=middle;resizable=0;points=[];" parent="6V2twQQ6KXOtNTaw_Wph-98" vertex="1" connectable="0">
          <mxGeometry x="0.9268" y="2" relative="1" as="geometry">
            <mxPoint x="-2" as="offset" />
          </mxGeometry>
        </mxCell>
        <mxCell id="6V2twQQ6KXOtNTaw_Wph-103" value="" style="edgeStyle=orthogonalEdgeStyle;rounded=0;orthogonalLoop=1;jettySize=auto;html=1;entryX=0.5;entryY=0;entryDx=0;entryDy=0;exitX=0.5;exitY=1;exitDx=0;exitDy=0;" parent="1" source="6V2twQQ6KXOtNTaw_Wph-20" target="6V2twQQ6KXOtNTaw_Wph-102" edge="1">
          <mxGeometry relative="1" as="geometry">
            <mxPoint x="350" y="430" as="sourcePoint" />
            <mxPoint x="488" y="719.9999999999995" as="targetPoint" />
            <Array as="points">
              <mxPoint x="300" y="420" />
              <mxPoint x="470" y="420" />
              <mxPoint x="470" y="600" />
            </Array>
          </mxGeometry>
        </mxCell>
        <mxCell id="6V2twQQ6KXOtNTaw_Wph-104" value="&lt;div&gt;&lt;font style=&quot;font-size: 15px;&quot;&gt;/login&lt;/font&gt;&lt;/div&gt;&lt;div&gt;&lt;font style=&quot;font-size: 15px;&quot;&gt;/logout&lt;br&gt;/add_user&lt;br&gt;/edit_user&lt;/font&gt;&lt;/div&gt;&lt;div&gt;&lt;font style=&quot;font-size: 15px;&quot;&gt;/delete_user&lt;br&gt;/brugere&lt;/font&gt;&lt;/div&gt;" style="edgeLabel;html=1;align=center;verticalAlign=middle;resizable=0;points=[];" parent="6V2twQQ6KXOtNTaw_Wph-103" vertex="1" connectable="0">
          <mxGeometry x="0.8705" y="-2" relative="1" as="geometry">
            <mxPoint x="1" y="-94" as="offset" />
          </mxGeometry>
        </mxCell>
        <mxCell id="6V2twQQ6KXOtNTaw_Wph-20" value="&lt;div&gt;Flask matcher&lt;/div&gt;&lt;div&gt;ruten&lt;/div&gt;" style="whiteSpace=wrap;html=1;" parent="1" vertex="1">
          <mxGeometry x="240" y="300" width="120" height="60" as="geometry" />
        </mxCell>
        <mxCell id="6V2twQQ6KXOtNTaw_Wph-28" value="" style="edgeStyle=orthogonalEdgeStyle;rounded=0;orthogonalLoop=1;jettySize=auto;html=1;" parent="1" source="6V2twQQ6KXOtNTaw_Wph-24" edge="1">
          <mxGeometry relative="1" as="geometry">
            <mxPoint x="100.00000000000011" y="440" as="targetPoint" />
          </mxGeometry>
        </mxCell>
        <mxCell id="6V2twQQ6KXOtNTaw_Wph-24" value="Input gemmes" style="shape=parallelogram;perimeter=parallelogramPerimeter;whiteSpace=wrap;html=1;fixedSize=1;" parent="1" vertex="1">
          <mxGeometry x="40" y="360" width="120" height="50" as="geometry" />
        </mxCell>
        <mxCell id="6V2twQQ6KXOtNTaw_Wph-31" value="" style="edgeStyle=orthogonalEdgeStyle;rounded=0;orthogonalLoop=1;jettySize=auto;html=1;" parent="1" source="6V2twQQ6KXOtNTaw_Wph-29" target="6V2twQQ6KXOtNTaw_Wph-30" edge="1">
          <mxGeometry relative="1" as="geometry" />
        </mxCell>
        <mxCell id="6V2twQQ6KXOtNTaw_Wph-32" value="Ja" style="edgeLabel;html=1;align=center;verticalAlign=middle;resizable=0;points=[];" parent="6V2twQQ6KXOtNTaw_Wph-31" vertex="1" connectable="0">
          <mxGeometry x="-0.319" y="2" relative="1" as="geometry">
            <mxPoint y="2" as="offset" />
          </mxGeometry>
        </mxCell>
        <mxCell id="6V2twQQ6KXOtNTaw_Wph-34" value="" style="edgeStyle=orthogonalEdgeStyle;rounded=0;orthogonalLoop=1;jettySize=auto;html=1;" parent="1" source="6V2twQQ6KXOtNTaw_Wph-29" target="6V2twQQ6KXOtNTaw_Wph-33" edge="1">
          <mxGeometry relative="1" as="geometry" />
        </mxCell>
        <mxCell id="6V2twQQ6KXOtNTaw_Wph-29" value="Fejl?" style="rhombus;whiteSpace=wrap;html=1;" parent="1" vertex="1">
          <mxGeometry x="60" y="440" width="80" height="80" as="geometry" />
        </mxCell>
        <mxCell id="6V2twQQ6KXOtNTaw_Wph-35" value="" style="edgeStyle=orthogonalEdgeStyle;rounded=0;orthogonalLoop=1;jettySize=auto;html=1;" parent="1" source="6V2twQQ6KXOtNTaw_Wph-30" target="6V2twQQ6KXOtNTaw_Wph-33" edge="1">
          <mxGeometry relative="1" as="geometry">
            <mxPoint x="260" y="590" as="targetPoint" />
            <Array as="points">
              <mxPoint x="260" y="540" />
              <mxPoint x="100" y="540" />
            </Array>
          </mxGeometry>
        </mxCell>
        <mxCell id="6V2twQQ6KXOtNTaw_Wph-70" value="" style="edgeStyle=orthogonalEdgeStyle;rounded=0;orthogonalLoop=1;jettySize=auto;html=1;entryX=0.5;entryY=0;entryDx=0;entryDy=0;" parent="1" source="6V2twQQ6KXOtNTaw_Wph-30" target="6V2twQQ6KXOtNTaw_Wph-58" edge="1">
          <mxGeometry relative="1" as="geometry">
            <mxPoint x="400" y="480" as="targetPoint" />
          </mxGeometry>
        </mxCell>
        <mxCell id="6V2twQQ6KXOtNTaw_Wph-30" value="&lt;div&gt;Fejl gemmes&amp;nbsp;&lt;/div&gt;&lt;div&gt;i DB&lt;/div&gt;" style="shape=parallelogram;perimeter=parallelogramPerimeter;whiteSpace=wrap;html=1;fixedSize=1;" parent="1" vertex="1">
          <mxGeometry x="200" y="450" width="120" height="60" as="geometry" />
        </mxCell>
        <mxCell id="6V2twQQ6KXOtNTaw_Wph-38" value="" style="edgeStyle=orthogonalEdgeStyle;rounded=0;orthogonalLoop=1;jettySize=auto;html=1;" parent="1" source="6V2twQQ6KXOtNTaw_Wph-33" target="6V2twQQ6KXOtNTaw_Wph-37" edge="1">
          <mxGeometry relative="1" as="geometry" />
        </mxCell>
        <mxCell id="6V2twQQ6KXOtNTaw_Wph-45" value="" style="edgeStyle=orthogonalEdgeStyle;rounded=0;orthogonalLoop=1;jettySize=auto;html=1;entryX=0.5;entryY=0;entryDx=0;entryDy=0;" parent="1" source="6V2twQQ6KXOtNTaw_Wph-33" target="6V2twQQ6KXOtNTaw_Wph-40" edge="1">
          <mxGeometry relative="1" as="geometry">
            <mxPoint x="80" y="680" as="targetPoint" />
          </mxGeometry>
        </mxCell>
        <mxCell id="6V2twQQ6KXOtNTaw_Wph-33" value="ID = 0?" style="rhombus;whiteSpace=wrap;html=1;" parent="1" vertex="1">
          <mxGeometry x="60" y="570" width="80" height="80" as="geometry" />
        </mxCell>
        <mxCell id="6V2twQQ6KXOtNTaw_Wph-69" value="" style="edgeStyle=orthogonalEdgeStyle;rounded=0;orthogonalLoop=1;jettySize=auto;html=1;entryX=0.5;entryY=0;entryDx=0;entryDy=0;" parent="1" source="6V2twQQ6KXOtNTaw_Wph-37" target="6V2twQQ6KXOtNTaw_Wph-49" edge="1">
          <mxGeometry relative="1" as="geometry">
            <mxPoint x="390" y="610" as="targetPoint" />
            <Array as="points">
              <mxPoint x="255" y="680" />
              <mxPoint x="610" y="680" />
              <mxPoint x="610" y="910" />
              <mxPoint x="540" y="910" />
            </Array>
          </mxGeometry>
        </mxCell>
        <mxCell id="6V2twQQ6KXOtNTaw_Wph-37" value="&lt;div&gt;DB.py&lt;/div&gt;&lt;div&gt;sessionupdate&lt;/div&gt;&lt;div&gt;&lt;br&gt;&lt;/div&gt;&lt;div&gt;&lt;br&gt;&lt;/div&gt;" style="shape=offPageConnector;whiteSpace=wrap;html=1;" parent="1" vertex="1">
          <mxGeometry x="200" y="575" width="110" height="70" as="geometry" />
        </mxCell>
        <mxCell id="6V2twQQ6KXOtNTaw_Wph-39" value="" style="edgeStyle=orthogonalEdgeStyle;rounded=0;orthogonalLoop=1;jettySize=auto;html=1;" parent="1" source="6V2twQQ6KXOtNTaw_Wph-40" target="6V2twQQ6KXOtNTaw_Wph-41" edge="1">
          <mxGeometry relative="1" as="geometry" />
        </mxCell>
        <mxCell id="6V2twQQ6KXOtNTaw_Wph-46" value="" style="edgeStyle=orthogonalEdgeStyle;rounded=0;orthogonalLoop=1;jettySize=auto;html=1;" parent="1" source="6V2twQQ6KXOtNTaw_Wph-40" target="6V2twQQ6KXOtNTaw_Wph-43" edge="1">
          <mxGeometry relative="1" as="geometry" />
        </mxCell>
        <mxCell id="6V2twQQ6KXOtNTaw_Wph-40" value="ID = 1?" style="rhombus;whiteSpace=wrap;html=1;" parent="1" vertex="1">
          <mxGeometry x="60" y="710" width="80" height="80" as="geometry" />
        </mxCell>
        <mxCell id="6V2twQQ6KXOtNTaw_Wph-68" value="" style="edgeStyle=orthogonalEdgeStyle;rounded=0;orthogonalLoop=1;jettySize=auto;html=1;entryX=-0.006;entryY=0.582;entryDx=0;entryDy=0;entryPerimeter=0;" parent="1" source="6V2twQQ6KXOtNTaw_Wph-41" target="6V2twQQ6KXOtNTaw_Wph-58" edge="1">
          <mxGeometry relative="1" as="geometry" />
        </mxCell>
        <mxCell id="6V2twQQ6KXOtNTaw_Wph-41" value="&lt;div&gt;DB.py&lt;/div&gt;&lt;div&gt;create new reading&lt;/div&gt;&lt;div&gt;&lt;br&gt;&lt;/div&gt;&lt;div&gt;&lt;br&gt;&lt;/div&gt;" style="shape=offPageConnector;whiteSpace=wrap;html=1;" parent="1" vertex="1">
          <mxGeometry x="200" y="715" width="110" height="70" as="geometry" />
        </mxCell>
        <mxCell id="6V2twQQ6KXOtNTaw_Wph-42" value="" style="edgeStyle=orthogonalEdgeStyle;rounded=0;orthogonalLoop=1;jettySize=auto;html=1;" parent="1" source="6V2twQQ6KXOtNTaw_Wph-43" target="6V2twQQ6KXOtNTaw_Wph-44" edge="1">
          <mxGeometry relative="1" as="geometry" />
        </mxCell>
        <mxCell id="6V2twQQ6KXOtNTaw_Wph-67" value="" style="edgeStyle=orthogonalEdgeStyle;rounded=0;orthogonalLoop=1;jettySize=auto;html=1;" parent="1" source="6V2twQQ6KXOtNTaw_Wph-43" target="6V2twQQ6KXOtNTaw_Wph-47" edge="1">
          <mxGeometry relative="1" as="geometry" />
        </mxCell>
        <mxCell id="6V2twQQ6KXOtNTaw_Wph-43" value="ID = 2?" style="rhombus;whiteSpace=wrap;html=1;" parent="1" vertex="1">
          <mxGeometry x="60" y="810" width="80" height="80" as="geometry" />
        </mxCell>
        <mxCell id="6V2twQQ6KXOtNTaw_Wph-66" value="" style="edgeStyle=orthogonalEdgeStyle;rounded=0;orthogonalLoop=1;jettySize=auto;html=1;" parent="1" source="6V2twQQ6KXOtNTaw_Wph-44" target="6V2twQQ6KXOtNTaw_Wph-60" edge="1">
          <mxGeometry relative="1" as="geometry" />
        </mxCell>
        <mxCell id="6V2twQQ6KXOtNTaw_Wph-44" value="&lt;div&gt;DB.py&lt;/div&gt;&lt;div&gt;Fetch AQI&lt;/div&gt;&lt;div&gt;&lt;br&gt;&lt;/div&gt;&lt;div&gt;&lt;br&gt;&lt;/div&gt;" style="shape=offPageConnector;whiteSpace=wrap;html=1;" parent="1" vertex="1">
          <mxGeometry x="200" y="815" width="110" height="70" as="geometry" />
        </mxCell>
        <mxCell id="6V2twQQ6KXOtNTaw_Wph-75" value="" style="edgeStyle=orthogonalEdgeStyle;rounded=0;orthogonalLoop=1;jettySize=auto;html=1;" parent="1" source="6V2twQQ6KXOtNTaw_Wph-47" target="6V2twQQ6KXOtNTaw_Wph-49" edge="1">
          <mxGeometry relative="1" as="geometry">
            <mxPoint x="240" y="955" as="targetPoint" />
            <Array as="points">
              <mxPoint x="200" y="955" />
              <mxPoint x="200" y="1000" />
              <mxPoint x="540" y="1000" />
            </Array>
          </mxGeometry>
        </mxCell>
        <mxCell id="6V2twQQ6KXOtNTaw_Wph-47" value="response = &quot;Got your message, but did nothing with it&quot;" style="rounded=0;whiteSpace=wrap;html=1;" parent="1" vertex="1">
          <mxGeometry x="40" y="925" width="120" height="60" as="geometry" />
        </mxCell>
        <mxCell id="6V2twQQ6KXOtNTaw_Wph-57" value="" style="edgeStyle=orthogonalEdgeStyle;rounded=0;orthogonalLoop=1;jettySize=auto;html=1;entryX=0;entryY=0.5;entryDx=0;entryDy=0;exitX=0;exitY=0.5;exitDx=0;exitDy=0;" parent="1" source="6V2twQQ6KXOtNTaw_Wph-49" target="6V2twQQ6KXOtNTaw_Wph-18" edge="1">
          <mxGeometry relative="1" as="geometry">
            <mxPoint x="140" y="1000" as="targetPoint" />
            <Array as="points">
              <mxPoint x="20" y="1060" />
              <mxPoint x="20" y="230" />
            </Array>
          </mxGeometry>
        </mxCell>
        <mxCell id="6V2twQQ6KXOtNTaw_Wph-49" value="&lt;div&gt;Returner response&lt;/div&gt;&lt;div&gt;til ESP32&lt;/div&gt;" style="shape=parallelogram;perimeter=parallelogramPerimeter;whiteSpace=wrap;html=1;fixedSize=1;" parent="1" vertex="1">
          <mxGeometry x="460" y="1030" width="160" height="60" as="geometry" />
        </mxCell>
        <mxCell id="6V2twQQ6KXOtNTaw_Wph-71" value="" style="edgeStyle=orthogonalEdgeStyle;rounded=0;orthogonalLoop=1;jettySize=auto;html=1;" parent="1" source="6V2twQQ6KXOtNTaw_Wph-58" target="6V2twQQ6KXOtNTaw_Wph-49" edge="1">
          <mxGeometry relative="1" as="geometry">
            <mxPoint x="510" y="745" as="targetPoint" />
            <Array as="points">
              <mxPoint x="610" y="745" />
              <mxPoint x="610" y="910" />
              <mxPoint x="540" y="910" />
            </Array>
          </mxGeometry>
        </mxCell>
        <mxCell id="6V2twQQ6KXOtNTaw_Wph-58" value="&lt;div&gt;response =&amp;nbsp;&lt;/div&gt;&lt;div&gt;&quot;Success&quot;&lt;/div&gt;" style="rounded=0;whiteSpace=wrap;html=1;" parent="1" vertex="1">
          <mxGeometry x="340" y="715" width="90" height="60" as="geometry" />
        </mxCell>
        <mxCell id="6V2twQQ6KXOtNTaw_Wph-62" value="" style="edgeStyle=orthogonalEdgeStyle;rounded=0;orthogonalLoop=1;jettySize=auto;html=1;" parent="1" source="6V2twQQ6KXOtNTaw_Wph-60" target="6V2twQQ6KXOtNTaw_Wph-61" edge="1">
          <mxGeometry relative="1" as="geometry">
            <Array as="points">
              <mxPoint x="380" y="930" />
              <mxPoint x="380" y="930" />
            </Array>
          </mxGeometry>
        </mxCell>
        <mxCell id="6V2twQQ6KXOtNTaw_Wph-63" value="Nej" style="edgeLabel;html=1;align=center;verticalAlign=middle;resizable=0;points=[];" parent="6V2twQQ6KXOtNTaw_Wph-62" vertex="1" connectable="0">
          <mxGeometry x="-0.0584" y="1" relative="1" as="geometry">
            <mxPoint as="offset" />
          </mxGeometry>
        </mxCell>
        <mxCell id="6V2twQQ6KXOtNTaw_Wph-65" value="" style="edgeStyle=orthogonalEdgeStyle;rounded=0;orthogonalLoop=1;jettySize=auto;html=1;" parent="1" source="6V2twQQ6KXOtNTaw_Wph-60" target="6V2twQQ6KXOtNTaw_Wph-64" edge="1">
          <mxGeometry relative="1" as="geometry" />
        </mxCell>
        <mxCell id="6V2twQQ6KXOtNTaw_Wph-74" value="Ja" style="edgeLabel;html=1;align=center;verticalAlign=middle;resizable=0;points=[];" parent="6V2twQQ6KXOtNTaw_Wph-65" vertex="1" connectable="0">
          <mxGeometry x="-0.5204" y="2" relative="1" as="geometry">
            <mxPoint x="4" y="2" as="offset" />
          </mxGeometry>
        </mxCell>
        <mxCell id="6V2twQQ6KXOtNTaw_Wph-60" value="&lt;div&gt;Er AQI&amp;nbsp;&lt;/div&gt;&lt;div&gt;højere end&amp;nbsp;&lt;/div&gt;&lt;div&gt;2&lt;/div&gt;" style="rhombus;whiteSpace=wrap;html=1;" parent="1" vertex="1">
          <mxGeometry x="335" y="805" width="90" height="90" as="geometry" />
        </mxCell>
        <mxCell id="6V2twQQ6KXOtNTaw_Wph-73" value="" style="edgeStyle=orthogonalEdgeStyle;rounded=0;orthogonalLoop=1;jettySize=auto;html=1;entryX=0.5;entryY=0;entryDx=0;entryDy=0;" parent="1" source="6V2twQQ6KXOtNTaw_Wph-61" target="6V2twQQ6KXOtNTaw_Wph-49" edge="1">
          <mxGeometry relative="1" as="geometry">
            <mxPoint x="540" y="1010" as="targetPoint" />
          </mxGeometry>
        </mxCell>
        <mxCell id="6V2twQQ6KXOtNTaw_Wph-61" value="response = motor = 0" style="whiteSpace=wrap;html=1;" parent="1" vertex="1">
          <mxGeometry x="307.5" y="940" width="145" height="45" as="geometry" />
        </mxCell>
        <mxCell id="6V2twQQ6KXOtNTaw_Wph-72" value="" style="edgeStyle=orthogonalEdgeStyle;rounded=0;orthogonalLoop=1;jettySize=auto;html=1;entryX=0.5;entryY=0;entryDx=0;entryDy=0;" parent="1" source="6V2twQQ6KXOtNTaw_Wph-64" target="6V2twQQ6KXOtNTaw_Wph-49" edge="1">
          <mxGeometry relative="1" as="geometry">
            <mxPoint x="522.5" y="952.5" as="targetPoint" />
            <Array as="points">
              <mxPoint x="523" y="950" />
              <mxPoint x="540" y="950" />
            </Array>
          </mxGeometry>
        </mxCell>
        <mxCell id="6V2twQQ6KXOtNTaw_Wph-64" value="response = motor = 1" style="whiteSpace=wrap;html=1;" parent="1" vertex="1">
          <mxGeometry x="460" y="827.5" width="135" height="45" as="geometry" />
        </mxCell>
        <mxCell id="6V2twQQ6KXOtNTaw_Wph-83" value="" style="edgeStyle=orthogonalEdgeStyle;rounded=0;orthogonalLoop=1;jettySize=auto;html=1;entryX=1;entryY=0.25;entryDx=0;entryDy=0;" parent="1" source="6V2twQQ6KXOtNTaw_Wph-76" target="6V2twQQ6KXOtNTaw_Wph-77" edge="1">
          <mxGeometry relative="1" as="geometry">
            <mxPoint x="850" y="330" as="targetPoint" />
            <Array as="points">
              <mxPoint x="760" y="330" />
              <mxPoint x="760" y="100" />
            </Array>
          </mxGeometry>
        </mxCell>
        <mxCell id="6V2twQQ6KXOtNTaw_Wph-76" value="Vent 2 sek." style="shape=delay;whiteSpace=wrap;html=1;" parent="1" vertex="1">
          <mxGeometry x="650" y="310" width="80" height="40" as="geometry" />
        </mxCell>
        <mxCell id="6V2twQQ6KXOtNTaw_Wph-80" value="" style="edgeStyle=orthogonalEdgeStyle;rounded=0;orthogonalLoop=1;jettySize=auto;html=1;entryX=0.5;entryY=0;entryDx=0;entryDy=0;" parent="1" source="6V2twQQ6KXOtNTaw_Wph-77" target="6V2twQQ6KXOtNTaw_Wph-12" edge="1">
          <mxGeometry relative="1" as="geometry">
            <Array as="points">
              <mxPoint x="665" y="170" />
              <mxPoint x="527" y="170" />
            </Array>
            <mxPoint x="527" y="200" as="targetPoint" />
          </mxGeometry>
        </mxCell>
        <mxCell id="6V2twQQ6KXOtNTaw_Wph-77" value="&lt;div&gt;DB.py&lt;/div&gt;&lt;div&gt;fetch latest&amp;nbsp;&lt;/div&gt;&lt;div&gt;readings&lt;/div&gt;&lt;div&gt;&lt;br&gt;&lt;/div&gt;&lt;div&gt;&lt;br&gt;&lt;/div&gt;" style="shape=offPageConnector;whiteSpace=wrap;html=1;" parent="1" vertex="1">
          <mxGeometry x="610" y="80" width="110" height="80" as="geometry" />
        </mxCell>
        <mxCell id="6V2twQQ6KXOtNTaw_Wph-86" value="&lt;div&gt;return&lt;/div&gt;&lt;div&gt;index.html&lt;/div&gt;" style="shape=parallelogram;perimeter=parallelogramPerimeter;whiteSpace=wrap;html=1;fixedSize=1;" parent="1" vertex="1">
          <mxGeometry x="690" y="480" width="120" height="60" as="geometry" />
        </mxCell>
        <mxCell id="6V2twQQ6KXOtNTaw_Wph-87" value="&lt;div&gt;return&lt;/div&gt;&lt;div&gt;om.html&lt;/div&gt;" style="shape=parallelogram;perimeter=parallelogramPerimeter;whiteSpace=wrap;html=1;fixedSize=1;" parent="1" vertex="1">
          <mxGeometry x="550" y="480" width="120" height="60" as="geometry" />
        </mxCell>
        <mxCell id="6V2twQQ6KXOtNTaw_Wph-88" value="&lt;div&gt;return&lt;/div&gt;&lt;div&gt;dashboard.html&lt;/div&gt;&lt;div&gt;Indeholder &lt;br&gt;Socket IO&lt;/div&gt;" style="shape=parallelogram;perimeter=parallelogramPerimeter;whiteSpace=wrap;html=1;fixedSize=1;" parent="1" vertex="1">
          <mxGeometry x="1090" y="480" width="124" height="90" as="geometry" />
        </mxCell>
        <mxCell id="6V2twQQ6KXOtNTaw_Wph-95" value="&lt;div&gt;return&lt;/div&gt;&lt;div&gt;indstillinger.html&lt;/div&gt;" style="shape=parallelogram;perimeter=parallelogramPerimeter;whiteSpace=wrap;html=1;fixedSize=1;" parent="1" vertex="1">
          <mxGeometry x="827" y="480" width="120" height="60" as="geometry" />
        </mxCell>
        <mxCell id="6V2twQQ6KXOtNTaw_Wph-96" value="&lt;div&gt;return&lt;/div&gt;&lt;div&gt;kontakt.html&lt;/div&gt;" style="shape=parallelogram;perimeter=parallelogramPerimeter;whiteSpace=wrap;html=1;fixedSize=1;" parent="1" vertex="1">
          <mxGeometry x="960" y="480" width="120" height="60" as="geometry" />
        </mxCell>
        <mxCell id="6V2twQQ6KXOtNTaw_Wph-102" value="&lt;div&gt;login-system&lt;/div&gt;&lt;div&gt;/value&lt;/div&gt;&lt;div&gt;&lt;br&gt;&lt;/div&gt;&lt;div&gt;&lt;br&gt;&lt;/div&gt;" style="shape=offPageConnector;whiteSpace=wrap;html=1;" parent="1" vertex="1">
          <mxGeometry x="414" y="580" width="110" height="70" as="geometry" />
        </mxCell>
      </root>
    </mxGraphModel>
  </diagram>
</mxfile>
